<?xml version="1.0" standalone="no"?>
<!DOCTYPE svg PUBLIC "-//W3C//DTD SVG 20010904//EN"
 "http://www.w3.org/TR/2001/REC-SVG-20010904/DTD/svg10.dtd">
<svg version="1.0" xmlns="http://www.w3.org/2000/svg"
 width="359.000000pt" height="359.000000pt" viewBox="0 0 359.000000 359.000000"
 preserveAspectRatio="xMidYMid meet">
<metadata>
Created by potrace 1.11, written by Peter Selinger 2001-2013
</metadata>
<g transform="translate(0.000000,359.000000) scale(0.100000,-0.100000)"
fill="#000000" stroke="none">
<path d="M1675 3574 c-235 -48 -412 -213 -481 -449 -23 -78 -24 -238 -2 -321
32 -117 88 -213 175 -299 65 -65 174 -125 270 -150 80 -21 223 -21 303 0 505
132 643 776 236 1100 -135 108 -331 155 -501 119z m230 -75 c140 -24 290 -132
364 -261 143 -251 67 -571 -172 -726 -86 -57 -164 -82 -272 -89 -160 -10 -300
43 -415 157 -212 212 -215 549 -6 764 93 95 198 147 331 164 63 8 73 7 170 -9z"/>
<path d="M3 1825 l0 -31 1788 0 c1372 0 1789 3 1793 12 2 7 3 20 2 30 -3 18
-57 19 -1793 19 l-1790 0 0 -30z"/>
<path d="M1700 1249 c-124 -18 -264 -92 -356 -187 -251 -260 -219 -698 68
-919 248 -190 601 -167 822 53 294 295 219 792 -149 989 -104 55 -265 82 -385
64z m235 -85 c88 -24 176 -75 245 -145 216 -217 217 -550 1 -768 -214 -216
-557 -217 -771 0 -72 72 -129 173 -150 268 -21 89 -8 234 27 318 69 164 203
281 373 327 66 18 205 18 275 0z"/>
</g>
</svg>
